<?xml version="1.0" encoding="UTF-8" standalone="no"?>
<!-- Created with Inkscape (http://www.inkscape.org/) -->

<svg
   xmlns:dc="http://purl.org/dc/elements/1.1/"
   xmlns:cc="http://creativecommons.org/ns#"
   xmlns:rdf="http://www.w3.org/1999/02/22-rdf-syntax-ns#"
   xmlns:svg="http://www.w3.org/2000/svg"
   xmlns="http://www.w3.org/2000/svg"
   xmlns:sodipodi="http://sodipodi.sourceforge.net/DTD/sodipodi-0.dtd"
   xmlns:inkscape="http://www.inkscape.org/namespaces/inkscape"
   width="48pt"
   height="48pt"
   viewBox="0 0 16.933334 16.933333"
   version="1.1"
   id="svg979"
   inkscape:version="0.92.4 (5da689c313, 2019-01-14)"
   sodipodi:docname="5 - Chart.svg"
   inkscape:export-filename="E:\TR Design Studio Creative\Project Design\TR Creative Design\Icon Design\Project Hiring\Icon Icons\003 - Business And Finance\Send\4 - Filled Line\4 - Growth.png"
   inkscape:export-xdpi="768"
   inkscape:export-ydpi="768">
  <defs
     id="defs973" />
  <sodipodi:namedview
     id="base"
     pagecolor="#ffffff"
     bordercolor="#666666"
     borderopacity="1.0"
     inkscape:pageopacity="0.0"
     inkscape:pageshadow="2"
     inkscape:zoom="4.2734375"
     inkscape:cx="67.68087"
     inkscape:cy="16.319711"
     inkscape:document-units="pt"
     inkscape:current-layer="layer1"
     showgrid="false"
     units="pt"
     inkscape:window-width="1366"
     inkscape:window-height="716"
     inkscape:window-x="-8"
     inkscape:window-y="-8"
     inkscape:window-maximized="1"
     inkscape:snap-bbox="true"
     inkscape:bbox-nodes="true"
     inkscape:snap-nodes="false"
     showguides="false">
    <inkscape:grid
       type="xygrid"
       id="grid1526" />
    <sodipodi:guide
       position="0.97013909,15.963209"
       orientation="56.666615,0"
       id="guide1528"
       inkscape:locked="false" />
    <sodipodi:guide
       position="0.97013909,0.97016731"
       orientation="0,56.666667"
       id="guide1530"
       inkscape:locked="false" />
    <sodipodi:guide
       position="15.963195,0.97016731"
       orientation="-56.666615,0"
       id="guide1532"
       inkscape:locked="false" />
    <sodipodi:guide
       position="15.963195,15.963209"
       orientation="0,-56.666667"
       id="guide1534"
       inkscape:locked="false" />
  </sodipodi:namedview>
  <metadata
     id="metadata976">
    <rdf:RDF>
      <cc:Work
         rdf:about="">
        <dc:format>image/svg+xml</dc:format>
        <dc:type
           rdf:resource="http://purl.org/dc/dcmitype/StillImage" />
        <dc:title></dc:title>
      </cc:Work>
    </rdf:RDF>
  </metadata>
  <g
     inkscape:label="Layer 1"
     inkscape:groupmode="layer"
     id="layer1"
     transform="translate(0,-280.06668)">
    <g
       transform="matrix(1.2329702,0,0,1.2329702,-53.64529,-42.688796)"
       style="display:inline;stroke-width:0.81104964"
       id="g2331">
      <path
         inkscape:connector-curvature="0"
         style="color:#000000;font-style:normal;font-variant:normal;font-weight:normal;font-stretch:normal;font-size:medium;line-height:normal;font-family:sans-serif;font-variant-ligatures:normal;font-variant-position:normal;font-variant-caps:normal;font-variant-numeric:normal;font-variant-alternates:normal;font-feature-settings:normal;text-indent:0;text-align:start;text-decoration:none;text-decoration-line:none;text-decoration-style:solid;text-decoration-color:#000000;letter-spacing:normal;word-spacing:normal;text-transform:none;writing-mode:lr-tb;direction:ltr;text-orientation:mixed;dominant-baseline:auto;baseline-shift:baseline;text-anchor:start;white-space:normal;shape-padding:0;clip-rule:nonzero;display:inline;overflow:visible;visibility:visible;isolation:auto;mix-blend-mode:normal;color-interpolation:sRGB;color-interpolation-filters:linearRGB;solid-color:#000000;solid-opacity:1;vector-effect:none;fill:#e6e6e6;fill-opacity:1;fill-rule:nonzero;stroke:none;stroke-width:0.42918068;stroke-linecap:round;stroke-linejoin:round;stroke-miterlimit:4;stroke-dasharray:none;stroke-dashoffset:0;stroke-opacity:1;color-rendering:auto;image-rendering:auto;shape-rendering:auto;text-rendering:auto;enable-background:accumulate"
         d="m 48.534866,262.55759 c -0.313088,10e-6 -0.59443,0.0812 -0.791016,0.27735 -0.196585,0.19614 -0.277343,0.47699 -0.277343,0.78906 v 3.69726 a 0.26460996,0.26460996 0 0 0 0.01367,0.082 l 2.083984,6.3496 a 0.26460996,0.26460996 0 0 0 0.25,0.18165 h 5.052735 c 0.312314,0 0.592813,-0.0808 0.789062,-0.27539 0.19625,-0.19465 0.277344,-0.47257 0.277344,-0.78126 v -8.99609 a 0.26460996,0.26460996 0 0 0 -0.09961,-0.20703 l -1.322266,-1.05859 a 0.26460996,0.26460996 0 0 0 -0.166016,-0.0586 z"
         id="path1751" />
      <path
         inkscape:connector-curvature="0"
         style="color:#000000;font-style:normal;font-variant:normal;font-weight:normal;font-stretch:normal;font-size:medium;line-height:normal;font-family:sans-serif;font-variant-ligatures:normal;font-variant-position:normal;font-variant-caps:normal;font-variant-numeric:normal;font-variant-alternates:normal;font-feature-settings:normal;text-indent:0;text-align:start;text-decoration:none;text-decoration-line:none;text-decoration-style:solid;text-decoration-color:#000000;letter-spacing:normal;word-spacing:normal;text-transform:none;writing-mode:lr-tb;direction:ltr;text-orientation:mixed;dominant-baseline:auto;baseline-shift:baseline;text-anchor:start;white-space:normal;shape-padding:0;clip-rule:nonzero;display:inline;overflow:visible;visibility:visible;isolation:auto;mix-blend-mode:normal;color-interpolation:sRGB;color-interpolation-filters:linearRGB;solid-color:#000000;solid-opacity:1;vector-effect:none;fill:#ffcd40;fill-opacity:1;fill-rule:nonzero;stroke:none;stroke-width:0.42918068;stroke-linecap:round;stroke-linejoin:round;stroke-miterlimit:4;stroke-dasharray:none;stroke-dashoffset:0;stroke-opacity:1;color-rendering:auto;image-rendering:auto;shape-rendering:auto;text-rendering:auto;enable-background:accumulate"
         d="m 46.269241,272.87595 c -0.504951,0 -0.919922,0.41496 -0.919922,0.91992 0,0.50496 0.414971,0.91993 0.919922,0.91993 h 2.890625 c 0.504951,0 0.919922,-0.41497 0.919922,-0.91993 0,-0.50496 -0.414971,-0.91992 -0.919922,-0.91992 z"
         id="path1604" />
      <path
         inkscape:connector-curvature="0"
         id="path1737"
         style="color:#000000;font-style:normal;font-variant:normal;font-weight:normal;font-stretch:normal;font-size:medium;line-height:normal;font-family:sans-serif;font-variant-ligatures:normal;font-variant-position:normal;font-variant-caps:normal;font-variant-numeric:normal;font-variant-alternates:normal;font-feature-settings:normal;text-indent:0;text-align:start;text-decoration:none;text-decoration-line:none;text-decoration-style:solid;text-decoration-color:#000000;letter-spacing:normal;word-spacing:normal;text-transform:none;writing-mode:lr-tb;direction:ltr;text-orientation:mixed;dominant-baseline:auto;baseline-shift:baseline;text-anchor:start;white-space:normal;shape-padding:0;clip-rule:nonzero;display:inline;overflow:visible;visibility:visible;isolation:auto;mix-blend-mode:normal;color-interpolation:sRGB;color-interpolation-filters:linearRGB;solid-color:#000000;solid-opacity:1;vector-effect:none;fill:#cccccc;fill-opacity:1;fill-rule:nonzero;stroke:none;stroke-width:0.42918068;stroke-linecap:round;stroke-linejoin:round;stroke-miterlimit:4;stroke-dasharray:none;stroke-dashoffset:0;stroke-opacity:1;color-rendering:auto;image-rendering:auto;shape-rendering:auto;text-rendering:auto;enable-background:accumulate"
         d="m 53.55257,262.55755 v 1.85363 a 0.26460995,0.26460995 0 0 0 0.26355,0.26355 h 2.117183 v -0.79272 a 0.26460995,0.26460995 0 0 0 -0.09973,-0.20722 l -1.321883,-1.05885 a 0.26460995,0.26460995 0 0 0 -0.166398,-0.0584 z" />
      <path
         inkscape:connector-curvature="0"
         style="color:#000000;font-style:normal;font-variant:normal;font-weight:normal;font-stretch:normal;font-size:medium;line-height:normal;font-family:sans-serif;font-variant-ligatures:normal;font-variant-position:normal;font-variant-caps:normal;font-variant-numeric:normal;font-variant-alternates:normal;font-feature-settings:normal;text-indent:0;text-align:start;text-decoration:none;text-decoration-line:none;text-decoration-style:solid;text-decoration-color:#000000;letter-spacing:normal;word-spacing:normal;text-transform:none;writing-mode:lr-tb;direction:ltr;text-orientation:mixed;dominant-baseline:auto;baseline-shift:baseline;text-anchor:start;white-space:normal;shape-padding:0;clip-rule:nonzero;display:inline;overflow:visible;visibility:visible;isolation:auto;mix-blend-mode:normal;color-interpolation:sRGB;color-interpolation-filters:linearRGB;solid-color:#000000;solid-opacity:1;vector-effect:none;fill:#ffcd40;fill-opacity:1;fill-rule:nonzero;stroke:none;stroke-width:0.42918068;stroke-linecap:round;stroke-linejoin:round;stroke-miterlimit:4;stroke-dasharray:none;stroke-dashoffset:0;stroke-opacity:1;paint-order:markers fill stroke;color-rendering:auto;image-rendering:auto;shape-rendering:auto;text-rendering:auto;enable-background:accumulate"
         d="m 47.732132,267.05564 c -1.019744,0 -1.853516,0.83377 -1.853516,1.85352 0,1.01974 0.833772,1.85156 1.853516,1.85156 1.019744,0 1.851562,-0.83182 1.851562,-1.85156 0,-1.01975 -0.831818,-1.85352 -1.851562,-1.85352 z"
         id="path1658" />
      <path
         sodipodi:nodetypes="ccccccc"
         inkscape:connector-curvature="0"
         style="color:#000000;font-style:normal;font-variant:normal;font-weight:normal;font-stretch:normal;font-size:medium;line-height:normal;font-family:sans-serif;font-variant-ligatures:normal;font-variant-position:normal;font-variant-caps:normal;font-variant-numeric:normal;font-variant-alternates:normal;font-feature-settings:normal;text-indent:0;text-align:start;text-decoration:none;text-decoration-line:none;text-decoration-style:solid;text-decoration-color:#000000;letter-spacing:normal;word-spacing:normal;text-transform:none;writing-mode:lr-tb;direction:ltr;text-orientation:mixed;dominant-baseline:auto;baseline-shift:baseline;text-anchor:start;white-space:normal;shape-padding:0;clip-rule:nonzero;display:inline;overflow:visible;visibility:visible;isolation:auto;mix-blend-mode:normal;color-interpolation:sRGB;color-interpolation-filters:linearRGB;solid-color:#000000;solid-opacity:1;vector-effect:none;fill:#ff1744;fill-opacity:1;fill-rule:nonzero;stroke:none;stroke-width:0.42918068;stroke-linecap:round;stroke-linejoin:round;stroke-miterlimit:4;stroke-dasharray:none;stroke-dashoffset:0;stroke-opacity:1;color-rendering:auto;image-rendering:auto;shape-rendering:auto;text-rendering:auto;enable-background:accumulate"
         d="m 52.493855,272.08337 v -1.58789 c -5.18e-4,-0.14617 -0.119455,-0.26423 -0.265625,-0.26367 l -1.056645,-3.9e-4 c -0.171096,0.005 -0.265621,0.13842 -0.265621,0.26406 v 1.58789 z"
         id="path1672" />
      <path
         sodipodi:nodetypes="ccccccc"
         inkscape:connector-curvature="0"
         style="color:#000000;font-style:normal;font-variant:normal;font-weight:normal;font-stretch:normal;font-size:medium;line-height:normal;font-family:sans-serif;font-variant-ligatures:normal;font-variant-position:normal;font-variant-caps:normal;font-variant-numeric:normal;font-variant-alternates:normal;font-feature-settings:normal;text-indent:0;text-align:start;text-decoration:none;text-decoration-line:none;text-decoration-style:solid;text-decoration-color:#000000;letter-spacing:normal;word-spacing:normal;text-transform:none;writing-mode:lr-tb;direction:ltr;text-orientation:mixed;dominant-baseline:auto;baseline-shift:baseline;text-anchor:start;white-space:normal;shape-padding:0;clip-rule:nonzero;display:inline;overflow:visible;visibility:visible;isolation:auto;mix-blend-mode:normal;color-interpolation:sRGB;color-interpolation-filters:linearRGB;solid-color:#000000;solid-opacity:1;vector-effect:none;fill:#7cb342;fill-opacity:1;fill-rule:nonzero;stroke:none;stroke-width:0.42918068;stroke-linecap:round;stroke-linejoin:round;stroke-miterlimit:4;stroke-dasharray:none;stroke-dashoffset:0;stroke-opacity:1;color-rendering:auto;image-rendering:auto;shape-rendering:auto;text-rendering:auto;enable-background:accumulate"
         d="m 54.611044,272.08287 v -2.38086 c 5.62e-4,-0.14693 -0.118693,-0.26618 -0.265625,-0.26562 l -1.0586,1.1e-4 c -0.184509,0 -0.263666,0.13756 -0.263666,0.26551 v 2.38086 z"
         id="path1686" />
      <path
         inkscape:connector-curvature="0"
         id="path1777"
         d="m 46.269171,272.87606 c -0.257771,0.0249 -0.527222,0.11855 -0.6956,0.32525 -0.131311,0.15187 -0.210542,0.34795 -0.220107,0.5486 0.916306,0.002 1.83269,-0.004 2.748943,0.003 0.412882,0.0214 0.846184,0.0457 1.21929,0.24116 0.152396,0.0762 0.261954,0.24266 0.224547,0.41644 0.01723,0.0868 -0.138527,0.32333 0.03332,0.19774 0.425233,-0.20589 0.628688,-0.76989 0.412438,-1.19512 -0.151885,-0.35074 -0.535908,-0.56715 -0.913351,-0.53709 -0.936492,1e-5 -1.872983,1e-5 -2.809475,2e-5 z"
         style="color:#000000;font-style:normal;font-variant:normal;font-weight:normal;font-stretch:normal;font-size:medium;line-height:normal;font-family:sans-serif;font-variant-ligatures:normal;font-variant-position:normal;font-variant-caps:normal;font-variant-numeric:normal;font-variant-alternates:normal;font-feature-settings:normal;text-indent:0;text-align:start;text-decoration:none;text-decoration-line:none;text-decoration-style:solid;text-decoration-color:#000000;letter-spacing:normal;word-spacing:normal;text-transform:none;writing-mode:lr-tb;direction:ltr;text-orientation:mixed;dominant-baseline:auto;baseline-shift:baseline;text-anchor:start;white-space:normal;shape-padding:0;clip-rule:nonzero;display:inline;overflow:visible;visibility:visible;isolation:auto;mix-blend-mode:normal;color-interpolation:sRGB;color-interpolation-filters:linearRGB;solid-color:#000000;solid-opacity:1;vector-effect:none;fill:#f8a92d;fill-opacity:1;fill-rule:nonzero;stroke:none;stroke-width:0.42918068;stroke-linecap:round;stroke-linejoin:round;stroke-miterlimit:4;stroke-dasharray:none;stroke-dashoffset:0;stroke-opacity:1;color-rendering:auto;image-rendering:auto;shape-rendering:auto;text-rendering:auto;enable-background:accumulate" />
      <path
         inkscape:connector-curvature="0"
         style="color:#000000;font-style:normal;font-variant:normal;font-weight:normal;font-stretch:normal;font-size:medium;line-height:normal;font-family:sans-serif;font-variant-ligatures:normal;font-variant-position:normal;font-variant-caps:normal;font-variant-numeric:normal;font-variant-alternates:normal;font-feature-settings:normal;text-indent:0;text-align:start;text-decoration:none;text-decoration-line:none;text-decoration-style:solid;text-decoration-color:#000000;letter-spacing:normal;word-spacing:normal;text-transform:none;writing-mode:lr-tb;direction:ltr;text-orientation:mixed;dominant-baseline:auto;baseline-shift:baseline;text-anchor:start;white-space:normal;shape-padding:0;clip-rule:nonzero;display:inline;overflow:visible;visibility:visible;isolation:auto;mix-blend-mode:normal;color-interpolation:sRGB;color-interpolation-filters:linearRGB;solid-color:#000000;solid-opacity:1;vector-effect:none;fill:#ffcd40;fill-opacity:1;fill-rule:nonzero;stroke:none;stroke-width:0.42918068;stroke-linecap:round;stroke-linejoin:round;stroke-miterlimit:4;stroke-dasharray:none;stroke-dashoffset:0;stroke-opacity:1;color-rendering:auto;image-rendering:auto;shape-rendering:auto;text-rendering:auto;enable-background:accumulate"
         d="m 45.739944,271.55369 c -0.504951,0 -0.919922,0.41496 -0.919922,0.91992 0,0.50495 0.414971,0.91992 0.919922,0.91992 h 2.890625 c 0.504951,0 0.919922,-0.41497 0.919922,-0.91992 0,-0.50496 -0.414971,-0.91992 -0.919922,-0.91992 z"
         id="path1620" />
      <path
         inkscape:connector-curvature="0"
         id="path1769"
         d="m 45.740127,271.55389 c -0.257771,0.0249 -0.527221,0.11855 -0.695599,0.32525 -0.131312,0.15187 -0.210542,0.34795 -0.220107,0.5486 0.916305,0.002 1.83269,-0.004 2.748943,0.003 0.412881,0.0214 0.846183,0.0457 1.219289,0.24116 0.152397,0.0762 0.261955,0.24266 0.224548,0.41644 0.01723,0.0868 -0.138527,0.32333 0.03332,0.19774 0.425233,-0.20589 0.628687,-0.76989 0.412438,-1.19512 -0.151886,-0.35074 -0.535908,-0.56715 -0.913351,-0.53709 -0.936492,10e-6 -1.872984,10e-6 -2.809476,2e-5 z"
         style="color:#000000;font-style:normal;font-variant:normal;font-weight:normal;font-stretch:normal;font-size:medium;line-height:normal;font-family:sans-serif;font-variant-ligatures:normal;font-variant-position:normal;font-variant-caps:normal;font-variant-numeric:normal;font-variant-alternates:normal;font-feature-settings:normal;text-indent:0;text-align:start;text-decoration:none;text-decoration-line:none;text-decoration-style:solid;text-decoration-color:#000000;letter-spacing:normal;word-spacing:normal;text-transform:none;writing-mode:lr-tb;direction:ltr;text-orientation:mixed;dominant-baseline:auto;baseline-shift:baseline;text-anchor:start;white-space:normal;shape-padding:0;clip-rule:nonzero;display:inline;overflow:visible;visibility:visible;isolation:auto;mix-blend-mode:normal;color-interpolation:sRGB;color-interpolation-filters:linearRGB;solid-color:#000000;solid-opacity:1;vector-effect:none;fill:#f8a92d;fill-opacity:1;fill-rule:nonzero;stroke:none;stroke-width:0.42918068;stroke-linecap:round;stroke-linejoin:round;stroke-miterlimit:4;stroke-dasharray:none;stroke-dashoffset:0;stroke-opacity:1;color-rendering:auto;image-rendering:auto;shape-rendering:auto;text-rendering:auto;enable-background:accumulate" />
      <path
         inkscape:connector-curvature="0"
         style="color:#000000;font-style:normal;font-variant:normal;font-weight:normal;font-stretch:normal;font-size:medium;line-height:normal;font-family:sans-serif;font-variant-ligatures:normal;font-variant-position:normal;font-variant-caps:normal;font-variant-numeric:normal;font-variant-alternates:normal;font-feature-settings:normal;text-indent:0;text-align:start;text-decoration:none;text-decoration-line:none;text-decoration-style:solid;text-decoration-color:#000000;letter-spacing:normal;word-spacing:normal;text-transform:none;writing-mode:lr-tb;direction:ltr;text-orientation:mixed;dominant-baseline:auto;baseline-shift:baseline;text-anchor:start;white-space:normal;shape-padding:0;clip-rule:nonzero;display:inline;overflow:visible;visibility:visible;isolation:auto;mix-blend-mode:normal;color-interpolation:sRGB;color-interpolation-filters:linearRGB;solid-color:#000000;solid-opacity:1;vector-effect:none;fill:#ffcd40;fill-opacity:1;fill-rule:nonzero;stroke:none;stroke-width:0.42918068;stroke-linecap:round;stroke-linejoin:round;stroke-miterlimit:4;stroke-dasharray:none;stroke-dashoffset:0;stroke-opacity:1;color-rendering:auto;image-rendering:auto;shape-rendering:auto;text-rendering:auto;enable-background:accumulate"
         d="m 46.269241,270.24314 c -0.504951,0 -0.919922,0.41497 -0.919922,0.91992 0,0.50495 0.414966,0.91992 0.919922,0.91992 h 2.890625 c 0.504956,0 0.919922,-0.41497 0.919922,-0.91992 0,-0.50495 -0.414971,-0.91992 -0.919922,-0.91992 z"
         id="path1635" />
      <path
         inkscape:connector-curvature="0"
         id="path1764"
         style="color:#000000;font-style:normal;font-variant:normal;font-weight:normal;font-stretch:normal;font-size:medium;line-height:normal;font-family:sans-serif;font-variant-ligatures:normal;font-variant-position:normal;font-variant-caps:normal;font-variant-numeric:normal;font-variant-alternates:normal;font-feature-settings:normal;text-indent:0;text-align:start;text-decoration:none;text-decoration-line:none;text-decoration-style:solid;text-decoration-color:#000000;letter-spacing:normal;word-spacing:normal;text-transform:none;writing-mode:lr-tb;direction:ltr;text-orientation:mixed;dominant-baseline:auto;baseline-shift:baseline;text-anchor:start;white-space:normal;shape-padding:0;clip-rule:nonzero;display:inline;overflow:visible;visibility:visible;isolation:auto;mix-blend-mode:normal;color-interpolation:sRGB;color-interpolation-filters:linearRGB;solid-color:#000000;solid-opacity:1;vector-effect:none;fill:#f8a92d;fill-opacity:1;fill-rule:nonzero;stroke:none;stroke-width:0.42918068;stroke-linecap:round;stroke-linejoin:round;stroke-miterlimit:4;stroke-dasharray:none;stroke-dashoffset:0;stroke-opacity:1;color-rendering:auto;image-rendering:auto;shape-rendering:auto;text-rendering:auto;enable-background:accumulate"
         d="m 46.269293,270.22994 c -0.389528,0 -0.723548,0.24804 -0.856795,0.59273 0.102266,-0.0396 0.212033,-0.0636 0.327629,-0.0636 h 2.89078 c 0.504952,0 0.919839,0.41488 0.919839,0.91984 0,0.11543 -0.02408,0.22549 -0.06356,0.32763 0.344697,-0.13325 0.592729,-0.46726 0.592729,-0.8568 0,-0.50496 -0.414888,-0.91984 -0.919839,-0.91984 z" />
      <path
         sodipodi:nodetypes="ccccccccccc"
         inkscape:connector-curvature="0"
         id="path1785"
         style="color:#000000;font-style:normal;font-variant:normal;font-weight:normal;font-stretch:normal;font-size:medium;line-height:normal;font-family:sans-serif;font-variant-ligatures:normal;font-variant-position:normal;font-variant-caps:normal;font-variant-numeric:normal;font-variant-alternates:normal;font-feature-settings:normal;text-indent:0;text-align:start;text-decoration:none;text-decoration-line:none;text-decoration-style:solid;text-decoration-color:#000000;letter-spacing:normal;word-spacing:normal;text-transform:none;writing-mode:lr-tb;direction:ltr;text-orientation:mixed;dominant-baseline:auto;baseline-shift:baseline;text-anchor:start;white-space:normal;shape-padding:0;clip-rule:nonzero;display:inline;overflow:visible;visibility:visible;isolation:auto;mix-blend-mode:normal;color-interpolation:sRGB;color-interpolation-filters:linearRGB;solid-color:#000000;solid-opacity:1;vector-effect:none;fill:#699938;fill-opacity:1;fill-rule:nonzero;stroke:none;stroke-width:0.42918068;stroke-linecap:round;stroke-linejoin:round;stroke-miterlimit:4;stroke-dasharray:none;stroke-dashoffset:0;stroke-opacity:1;color-rendering:auto;image-rendering:auto;shape-rendering:auto;text-rendering:auto;enable-background:accumulate"
         d="m 54.61082,272.08771 v -2.38581 c 5.56e-4,-0.14692 -0.118692,-0.26617 -0.265617,-0.26561 l 8.2e-5,-9e-5 -1.058333,5.3e-4 c -0.185428,0 -0.264148,0.13273 -0.264148,0.26518 v 0.26407 l 0.793233,-5.3e-4 c 0.146929,-5.6e-4 0.266179,0.11869 0.265617,0.26562 v 1.85664 z" />
      <path
         sodipodi:nodetypes="cccccccccc"
         inkscape:connector-curvature="0"
         id="path1790"
         style="color:#000000;font-style:normal;font-variant:normal;font-weight:normal;font-stretch:normal;font-size:medium;line-height:normal;font-family:sans-serif;font-variant-ligatures:normal;font-variant-position:normal;font-variant-caps:normal;font-variant-numeric:normal;font-variant-alternates:normal;font-feature-settings:normal;text-indent:0;text-align:start;text-decoration:none;text-decoration-line:none;text-decoration-style:solid;text-decoration-color:#000000;letter-spacing:normal;word-spacing:normal;text-transform:none;writing-mode:lr-tb;direction:ltr;text-orientation:mixed;dominant-baseline:auto;baseline-shift:baseline;text-anchor:start;white-space:normal;shape-padding:0;clip-rule:nonzero;display:inline;overflow:visible;visibility:visible;isolation:auto;mix-blend-mode:normal;color-interpolation:sRGB;color-interpolation-filters:linearRGB;solid-color:#000000;solid-opacity:1;vector-effect:none;fill:#e5173a;fill-opacity:1;fill-rule:nonzero;stroke:none;stroke-width:0.42918068;stroke-linecap:round;stroke-linejoin:round;stroke-miterlimit:4;stroke-dasharray:none;stroke-dashoffset:0;stroke-opacity:1;color-rendering:auto;image-rendering:auto;shape-rendering:auto;text-rendering:auto;enable-background:accumulate"
         d="m 52.493718,272.07632 v -1.58076 c -5.84e-4,-0.14612 -0.119496,-0.26411 -0.265616,-0.26355 l -1.056266,-5.1e-4 c -0.17614,0 -0.266218,0.14284 -0.266218,0.26412 v 0.2651 l 0.793233,5.3e-4 c 0.146111,-5.6e-4 0.265019,0.11742 0.265614,0.26353 v 1.05154 z" />
      <path
         inkscape:connector-curvature="0"
         style="color:#000000;font-style:normal;font-variant:normal;font-weight:normal;font-stretch:normal;font-size:medium;line-height:normal;font-family:sans-serif;font-variant-ligatures:normal;font-variant-position:normal;font-variant-caps:normal;font-variant-numeric:normal;font-variant-alternates:normal;font-feature-settings:normal;text-indent:0;text-align:start;text-decoration:none;text-decoration-line:none;text-decoration-style:solid;text-decoration-color:#000000;letter-spacing:normal;word-spacing:normal;text-transform:none;writing-mode:lr-tb;direction:ltr;text-orientation:mixed;dominant-baseline:auto;baseline-shift:baseline;text-anchor:start;white-space:normal;shape-padding:0;clip-rule:nonzero;display:inline;overflow:visible;visibility:visible;isolation:auto;mix-blend-mode:normal;color-interpolation:sRGB;color-interpolation-filters:linearRGB;solid-color:#000000;solid-opacity:1;vector-effect:none;fill:#cccccc;fill-opacity:1;fill-rule:nonzero;stroke:none;stroke-width:0.42918068;stroke-linecap:round;stroke-linejoin:round;stroke-miterlimit:4;stroke-dasharray:none;stroke-dashoffset:0;stroke-opacity:1;paint-order:markers fill stroke;color-rendering:auto;image-rendering:auto;shape-rendering:auto;text-rendering:auto;enable-background:accumulate"
         d="m 50.376663,271.81931 a 0.2645835,0.2645835 0 0 0 -0.263672,0.26367 0.2645835,0.2645835 0 0 0 0.263672,0.26563 h 4.234375 a 0.2645835,0.2645835 0 0 0 0.263672,-0.26563 0.2645835,0.2645835 0 0 0 -0.263672,-0.26367 z"
         id="path1699" />
      <path
         inkscape:connector-curvature="0"
         id="path1795"
         style="color:#000000;font-style:normal;font-variant:normal;font-weight:normal;font-stretch:normal;font-size:medium;line-height:normal;font-family:sans-serif;font-variant-ligatures:normal;font-variant-position:normal;font-variant-caps:normal;font-variant-numeric:normal;font-variant-alternates:normal;font-feature-settings:normal;text-indent:0;text-align:start;text-decoration:none;text-decoration-line:none;text-decoration-style:solid;text-decoration-color:#000000;letter-spacing:normal;word-spacing:normal;text-transform:none;writing-mode:lr-tb;direction:ltr;text-orientation:mixed;dominant-baseline:auto;baseline-shift:baseline;text-anchor:start;white-space:normal;shape-padding:0;clip-rule:nonzero;display:inline;overflow:visible;visibility:visible;isolation:auto;mix-blend-mode:normal;color-interpolation:sRGB;color-interpolation-filters:linearRGB;solid-color:#000000;solid-opacity:1;vector-effect:none;fill:#cccccc;fill-opacity:1;fill-rule:nonzero;stroke:none;stroke-width:0.42918068;stroke-linecap:round;stroke-linejoin:round;stroke-miterlimit:4;stroke-dasharray:none;stroke-dashoffset:0;stroke-opacity:1;color-rendering:auto;image-rendering:auto;shape-rendering:auto;text-rendering:auto;enable-background:accumulate"
         d="m 53.817669,262.55755 a 0.26460995,0.26460995 0 0 1 0.164847,0.0584 l 1.321884,1.05885 a 0.26460995,0.26460995 0 0 1 0.09973,0.20722 v 8.99584 c 0,0.30869 -0.08125,0.5867 -0.277502,0.78135 -0.196249,0.19459 -0.476786,0.27543 -0.789099,0.27543 h 0.529166 c 0.312314,0 0.59285,-0.0808 0.789099,-0.27543 0.19625,-0.19465 0.277503,-0.47266 0.277503,-0.78135 v -8.99584 a 0.26460995,0.26460995 0 0 0 -0.09974,-0.20722 l -1.321883,-1.05885 a 0.26460995,0.26460995 0 0 0 -0.166398,-0.0584 z" />
      <path
         inkscape:connector-curvature="0"
         id="path1800"
         style="color:#000000;font-style:normal;font-variant:normal;font-weight:normal;font-stretch:normal;font-size:medium;line-height:normal;font-family:sans-serif;font-variant-ligatures:normal;font-variant-position:normal;font-variant-caps:normal;font-variant-numeric:normal;font-variant-alternates:normal;font-feature-settings:normal;text-indent:0;text-align:start;text-decoration:none;text-decoration-line:none;text-decoration-style:solid;text-decoration-color:#000000;letter-spacing:normal;word-spacing:normal;text-transform:none;writing-mode:lr-tb;direction:ltr;text-orientation:mixed;dominant-baseline:auto;baseline-shift:baseline;text-anchor:start;white-space:normal;shape-padding:0;clip-rule:nonzero;display:inline;overflow:visible;visibility:visible;isolation:auto;mix-blend-mode:normal;color-interpolation:sRGB;color-interpolation-filters:linearRGB;solid-color:#000000;solid-opacity:1;vector-effect:none;fill:#f8a92d;fill-opacity:1;fill-rule:nonzero;stroke:none;stroke-width:0.42918068;stroke-linecap:round;stroke-linejoin:round;stroke-miterlimit:4;stroke-dasharray:none;stroke-dashoffset:0;stroke-opacity:1;paint-order:markers fill stroke;color-rendering:auto;image-rendering:auto;shape-rendering:auto;text-rendering:auto;enable-background:accumulate"
         d="m 47.732253,267.05546 c -0.644681,0 -1.214334,0.33385 -1.546675,0.83665 0.292622,-0.19357 0.642221,-0.30748 1.017509,-0.30748 1.019744,0 1.851566,0.83388 1.851566,1.85363 0,0.37529 -0.11373,0.72471 -0.306958,1.017 0.502769,-0.33168 0.836125,-0.90106 0.836125,-1.54616 0,-1.01975 -0.831823,-1.85364 -1.851567,-1.85364 z" />
      <path
         sodipodi:nodetypes="ccscscsscscssscscscccccsccccscsccsccscscscscccccccccccssssscccccccccccsscccscsssccccccccccccccccccccccccccccccccccccccsssscsssssssssssssssss"
         inkscape:connector-curvature="0"
         id="rect1225"
         d="m 48.533471,262.55921 c -0.313087,10e-6 -0.59458,0.0813 -0.791165,0.2775 -0.196586,0.19614 -0.276987,0.47703 -0.276987,0.7891 v 3.4525 c -0.895517,0.12877 -1.588016,0.90022 -1.588016,1.83038 0,0.52414 0.220501,0.99844 0.572574,1.33636 h -0.181901 c -0.504952,0 -0.91984,0.41489 -0.91984,0.91984 0,0.15874 0.04435,0.30632 0.116271,0.43718 -0.371739,0.11827 -0.645954,0.46437 -0.645954,0.87333 0,0.41104 0.27699,0.75839 0.65164,0.87488 -0.07542,0.13323 -0.121957,0.28467 -0.121957,0.44752 0,0.50496 0.414885,0.91984 0.91984,0.91984 h 2.888713 c 0.457568,0 0.837388,-0.34167 0.905372,-0.78135 h 4.801775 c 0.312311,0 0.592333,-0.0807 0.78858,-0.27543 0.196252,-0.19465 0.279569,-0.47474 0.279569,-0.78342 v -8.99583 c -5.29e-4,-0.0799 -0.03727,-0.15534 -0.09973,-0.20516 l -1.323951,-1.05833 c -0.0465,-0.0375 -0.104595,-0.0585 -0.16433,-0.0589 z m 0,0.52917 h 5.015714 v 1.3224 c -5.29e-4,0.14693 0.118687,0.26617 0.265618,0.26561 h 1.588015 v 8.20105 c 0,0.22049 -0.05094,0.33831 -0.121438,0.40825 -0.07051,0.0699 -0.192,0.12144 -0.417544,0.12144 h -4.878774 c -0.11009,-0.23107 -0.31293,-0.40739 -0.560173,-0.48421 0.07548,-0.13327 0.122473,-0.28461 0.122473,-0.44752 0,-0.15874 -0.04487,-0.30632 -0.116787,-0.43718 0.371896,-0.11817 0.645956,-0.46426 0.645954,-0.87333 0,-0.50495 -0.414886,-0.91984 -0.91984,-0.91984 h -0.149344 c 0.35211,-0.33792 0.57309,-0.81219 0.57309,-1.33636 0,-0.92925 -0.691695,-1.69996 -1.58595,-1.82986 v -3.45302 c 0,-0.22521 0.05029,-0.34346 0.120925,-0.41393 0.07063,-0.0705 0.191448,-0.1235 0.418061,-0.1235 z m 5.544881,0 h 0.172085 l 1.152381,0.9219 v 0.13695 h -1.324466 z m -5.291149,0.79323 c -0.360785,-0.008 -0.360785,0.53727 0,0.52917 h 2.033466 c 0.360786,0.008 0.360786,-0.53727 0,-0.52917 z m 0,1.05833 c -0.35312,0 -0.35312,0.52969 0,0.52969 h 2.646866 c 0.353121,0 0.353121,-0.52969 0,-0.52969 z m 0,1.05885 c -0.345241,0.007 -0.345241,0.52172 0,0.52917 h 5.291149 c 0.360476,0.008 0.360476,-0.53695 0,-0.52917 z m 3.96875,1.3224 c -0.360785,-0.008 -0.360785,0.53727 0,0.52917 h 0.08992 l -1.588015,1.38855 c -0.265753,0.23322 0.08409,0.63164 0.349847,0.39842 l 1.677935,-1.46761 v 0.20981 c 0,0.35286 0.529167,0.35286 0.529167,0 v -0.76481 c 0.01733,-0.15768 -0.106995,-0.29508 -0.265618,-0.29353 z m -5.027083,0.26562 c 0.733761,0 1.322401,0.58812 1.322398,1.32188 0,0.73376 -0.588637,1.32447 -1.322398,1.32447 -0.733761,0 -1.322401,-0.59071 -1.322401,-1.32447 0,-0.73376 0.58864,-1.32188 1.322401,-1.32188 z m -0.269751,0.5271 c -0.06856,0.002 -0.13359,0.0309 -0.181385,0.0801 l -0.529166,0.52761 c -0.279067,0.2479 0.123155,0.65235 0.372586,0.37466 l 0.529685,-0.52917 c 0.170985,-0.16815 0.04803,-0.4588 -0.19172,-0.4532 z m 1.05885,0.26355 c -0.06874,0.002 -0.13398,0.0308 -0.181901,0.0801 l -1.058334,1.05885 c -0.28943,0.24793 0.125169,0.66253 0.373105,0.3731 l 1.058334,-1.05678 c 0.174548,-0.16777 0.05079,-0.46244 -0.191204,-0.45527 z m 4.501502,1.32653 v 2.11511 h -0.529167 v -1.32188 c -2.65e-4,-0.14552 -0.118036,-0.26349 -0.263549,-0.26407 h -1.05129 c -0.151479,0 -0.27115,0.10839 -0.27115,0.26407 v 1.32188 h -0.529167 c -0.360786,-0.008 -0.360786,0.53727 0,0.52917 1.41125,8.2e-4 2.82194,0 4.232296,0 0.360786,0.008 0.360786,-0.53727 0,-0.52917 v -2.11511 c 5.29e-4,-0.14612 -0.11743,-0.26503 -0.263549,-0.26562 H 53.26984 c -0.187385,0 -0.250369,0.14251 -0.250369,0.26562 z m 0.529714,0.26355 h 0.529167 v 1.85157 h -0.529167 z m -2.115116,0.79479 h 0.529166 v 1.05678 h -0.529166 z m -5.166093,0.0119 h 2.888713 c 0.220948,0 0.390673,0.16973 0.390673,0.39068 0,0.22095 -0.169725,0.39067 -0.390673,0.39067 h -0.529683 -2.35903 c -0.220948,0 -0.390673,-0.16972 -0.390673,-0.39067 0,-0.22095 0.169725,-0.39068 0.390673,-0.39068 z m -0.529167,1.31052 h 2.888197 c 0.220948,0 0.390673,0.16972 0.390673,0.39067 0,0.22095 -0.169725,0.39067 -0.390673,0.39067 h -2.888197 c -0.220948,0 -0.390673,-0.16972 -0.390673,-0.39067 0,-0.22095 0.169725,-0.39067 0.390673,-0.39067 z m 0.529167,1.3224 h 2.888713 c 0.220951,0 0.390673,0.16973 0.390673,0.39067 0,0.22095 -0.169728,0.39067 -0.390673,0.39067 h -2.888713 c -0.220946,0 -0.390673,-0.16972 -0.390673,-0.39067 0,-0.22094 0.169722,-0.39067 0.390673,-0.39067 z"
         style="color:#000000;font-style:normal;font-variant:normal;font-weight:normal;font-stretch:normal;font-size:medium;line-height:normal;font-family:sans-serif;font-variant-ligatures:normal;font-variant-position:normal;font-variant-caps:normal;font-variant-numeric:normal;font-variant-alternates:normal;font-feature-settings:normal;text-indent:0;text-align:start;text-decoration:none;text-decoration-line:none;text-decoration-style:solid;text-decoration-color:#000000;letter-spacing:normal;word-spacing:normal;text-transform:none;writing-mode:lr-tb;direction:ltr;text-orientation:mixed;dominant-baseline:auto;baseline-shift:baseline;text-anchor:start;white-space:normal;shape-padding:0;clip-rule:nonzero;display:inline;overflow:visible;visibility:visible;isolation:auto;mix-blend-mode:normal;color-interpolation:sRGB;color-interpolation-filters:linearRGB;solid-color:#000000;solid-opacity:1;vector-effect:none;fill:#000000;fill-opacity:1;fill-rule:nonzero;stroke:none;stroke-width:0.42918068;stroke-linecap:round;stroke-linejoin:round;stroke-miterlimit:4;stroke-dasharray:none;stroke-dashoffset:0;stroke-opacity:1;color-rendering:auto;image-rendering:auto;shape-rendering:auto;text-rendering:auto;enable-background:accumulate" />
    </g>
  </g>
</svg>
