<?xml version="1.0" standalone="no"?>
<!DOCTYPE svg PUBLIC "-//W3C//DTD SVG 20010904//EN"
 "http://www.w3.org/TR/2001/REC-SVG-20010904/DTD/svg10.dtd">
<svg version="1.0" xmlns="http://www.w3.org/2000/svg"
 width="700.000000pt" height="700.000000pt" viewBox="0 0 700.000000 700.000000"
 preserveAspectRatio="xMidYMid meet">
<metadata>
Created by potrace 1.14, written by Peter Selinger 2001-2017
</metadata>
<g transform="translate(0.000000,700.000000) scale(0.100000,-0.100000)"
fill="#000000" stroke="none">
<path d="M2405 6583 c-196 -41 -324 -166 -372 -360 -14 -61 -16 -170 -17 -995
l-1 -927 -50 -11 c-202 -46 -344 -125 -490 -274 -176 -180 -267 -402 -266
-653 0 -229 74 -433 220 -608 27 -33 49 -60 48 -61 -1 -1 -40 -4 -87 -7 -103
-6 -179 -33 -257 -91 -95 -69 -143 -140 -177 -258 -28 -96 -19 -234 20 -310 9
-16 14 -31 12 -32 -2 -2 -32 -18 -68 -37 -238 -124 -322 -421 -186 -653 40
-69 124 -147 195 -180 46 -23 60 -34 55 -45 -122 -290 19 -589 313 -666 48
-13 179 -15 848 -15 863 0 850 -1 959 58 107 57 216 201 233 307 l6 35 1301 2
c1300 3 1301 3 1356 24 181 69 267 163 316 344 16 61 17 203 18 2430 1 2196 0
2368 -16 2391 -20 32 -710 586 -745 600 -15 5 -611 9 -1561 8 -1320 -1 -1547
-3 -1607 -16z"/>
</g>
</svg>
